<?xml version="1.0" encoding="UTF-8" standalone="no"?>
<!DOCTYPE svg PUBLIC "-//W3C//DTD SVG 1.1//EN" "http://www.w3.org/Graphics/SVG/1.1/DTD/svg11.dtd">
<svg width="100%" height="100%" viewBox="0 0 1200 1200" version="1.1" xmlns="http://www.w3.org/2000/svg" xmlns:xlink="http://www.w3.org/1999/xlink" xml:space="preserve" xmlns:serif="http://www.serif.com/" style="fill-rule:evenodd;clip-rule:evenodd;stroke-linejoin:round;stroke-miterlimit:2;">
    <g>
        <path d="M732.72,366C732.529,330.844 718.4,297.199 693.427,272.449C668.454,247.703 634.681,233.875 599.525,234C564.365,234.129 530.697,248.199 505.904,273.129C481.111,298.055 467.22,331.801 467.283,366.957C467.346,402.117 481.357,435.812 506.24,460.652C531.123,485.488 564.845,499.441 600.002,499.441C635.287,499.312 669.08,485.191 693.963,460.171C718.846,435.155 732.787,401.284 732.721,365.999L732.72,366ZM515.28,366L515.284,366C515.471,343.574 524.55,322.137 540.518,306.391C556.491,290.645 578.053,281.875 600.479,282C622.905,282.129 644.366,291.141 660.159,307.066C675.952,322.992 684.784,344.531 684.718,366.957C684.655,389.387 675.702,410.871 659.823,426.711C643.94,442.547 622.428,451.438 600.003,451.441C577.448,451.312 555.862,442.246 539.983,426.23C524.1,410.214 515.217,388.554 515.284,366L515.28,366Z" style="fill:rgb(15,39,151);fill-rule:nonzero;"/>
        <path d="M1115.3,1014.6L1069.34,759.6C1065.35,737.455 1053.7,717.42 1036.44,702.991C1019.18,688.557 997.398,680.647 974.898,680.639L785.658,680.639L848.178,596.639C896.069,533.971 920.026,456.269 915.737,377.519C904.217,206.519 764.297,71.999 597.017,71.999C429.737,71.999 289.817,206.519 278.297,377.879C274.008,456.633 297.965,534.339 345.856,596.999L408.376,680.999L225.136,680.999C202.636,681.007 180.855,688.917 163.593,703.351C146.331,717.781 134.687,737.816 130.695,759.96L84.734,1014.6C79.566,1042.64 87.132,1071.53 105.379,1093.43C123.625,1115.34 150.664,1128.01 179.176,1128L1020.86,1128C1049.29,1127.99 1076.26,1115.37 1094.49,1093.55C1112.72,1071.72 1120.35,1042.94 1115.3,1014.96L1115.3,1014.6ZM326.18,381.12C334.821,252.96 438.5,120 597.02,120C755.54,120 859.22,252 867.86,380.76C871.364,448.096 850.727,514.48 809.661,567.96L597.021,852.84L384.021,568.32C343.083,514.789 322.572,448.41 326.181,381.12L326.18,381.12ZM1058.18,1062.48C1049.01,1073.64 1035.3,1080.07 1020.86,1080L179.18,1080C164.895,1080 151.356,1073.63 142.239,1062.64C133.126,1051.64 129.38,1037.16 132.02,1023.12L177.981,768.001C179.977,756.919 185.809,746.896 194.454,739.677C203.095,732.462 214.001,728.513 225.259,728.521L444.019,728.521L577.819,907.321C582.346,913.411 589.487,917.001 597.077,917.001C604.667,917.001 611.811,913.411 616.339,907.321L749.779,728.641L974.899,728.641C986.122,728.653 996.985,732.598 1005.6,739.789C1014.22,746.98 1020.04,756.961 1022.06,768L1068.02,1023.12C1070.55,1037.08 1066.77,1051.45 1057.7,1062.36L1058.18,1062.48Z" style="fill:rgb(15,39,151);fill-rule:nonzero;"/>
    </g>
</svg>
