<?xml version="1.0" encoding="UTF-8" standalone="no"?>
<!DOCTYPE svg PUBLIC "-//W3C//DTD SVG 1.1//EN" "http://www.w3.org/Graphics/SVG/1.1/DTD/svg11.dtd">
<svg width="100%" height="100%" viewBox="0 0 1200 1200" version="1.1" xmlns="http://www.w3.org/2000/svg" xmlns:xlink="http://www.w3.org/1999/xlink" xml:space="preserve" xmlns:serif="http://www.serif.com/" style="fill-rule:evenodd;clip-rule:evenodd;stroke-linejoin:round;stroke-miterlimit:2;">
    <path d="M249.72,1035C249.595,1070.85 263.732,1105.28 289.013,1130.69C314.298,1156.11 348.654,1170.42 384.505,1170.48C420.357,1170.54 454.755,1156.34 480.122,1131L910.802,699.84C936.251,674.395 950.466,639.828 950.282,603.84L950.282,599.399C951.595,562.098 937.337,525.93 910.923,499.559L480.003,69.479C445.628,36.791 396.624,24.541 350.913,37.213C305.202,49.881 269.495,85.611 256.854,131.33C244.213,177.049 256.495,226.045 289.202,260.4L628.802,600L289.202,939.6C263.901,964.897 249.694,999.217 249.722,1035L249.72,1035Z" style="fill:rgb(15,39,151);fill-rule:nonzero;"/>
</svg>
