<?xml version="1.0" encoding="UTF-8" standalone="no"?>
<!DOCTYPE svg PUBLIC "-//W3C//DTD SVG 1.1//EN" "http://www.w3.org/Graphics/SVG/1.1/DTD/svg11.dtd">
<svg width="100%" height="100%" viewBox="0 0 1200 1200" version="1.1" xmlns="http://www.w3.org/2000/svg" xmlns:xlink="http://www.w3.org/1999/xlink" xml:space="preserve" xmlns:serif="http://www.serif.com/" style="fill-rule:evenodd;clip-rule:evenodd;stroke-linejoin:round;stroke-miterlimit:2;">
    <g transform="matrix(1.12667,0,0,1.12667,-76.0007,-76.0001)">
        <path d="M925,275L275,275C240.148,275 207.148,289.5 185.301,313.801C185.102,314 185,314.25 184.801,314.449C184.649,314.602 184.5,314.649 184.399,314.801C184.301,314.949 184.25,315.102 184.149,315.25C162.2,337.898 150.001,367.852 150.001,400L150.001,800C150.001,868.898 206.103,925 275.001,925L925.001,925C993.899,925 1050,868.898 1050,800L1050,400C1050,367.25 1037.45,336.602 1015.6,314.801C992.853,289.5 959.853,275 925.001,275L925,275ZM925,325C930.5,325 935.852,325.699 941.051,326.852C943.199,327.352 945.25,328.203 947.352,328.852C950.203,329.75 953.102,330.602 955.801,331.852C956.403,332.102 956.903,332.5 957.449,332.801L649.049,602.001C621.049,626.399 578.947,626.399 550.947,602.001L242.497,332.751C242.997,332.501 243.396,332.2 243.896,331.95C247.095,330.45 250.447,329.399 253.845,328.399C255.544,327.899 257.146,327.2 258.845,326.798C264.099,325.7 269.497,325.001 274.997,325.001L925,325ZM1000,800C1000,841.352 966.352,875 925,875L275,875C233.648,875 200,841.352 200,800L200,400C200,388.75 203,378.449 207.699,368.75L518.099,639.7C541.451,660.052 570.747,670.251 599.997,670.251C629.247,670.251 658.548,660.052 681.895,639.7L992.345,368.75C996.951,378.301 1000,388.648 1000,400L1000,800Z" style="fill:rgb(15,39,151);fill-rule:nonzero;"/>
    </g>
</svg>
