<?xml version="1.0" encoding="UTF-8" standalone="no"?>
<!DOCTYPE svg PUBLIC "-//W3C//DTD SVG 1.1//EN" "http://www.w3.org/Graphics/SVG/1.1/DTD/svg11.dtd">
<svg width="100%" height="100%" viewBox="0 0 1200 1200" version="1.1" xmlns="http://www.w3.org/2000/svg" xmlns:xlink="http://www.w3.org/1999/xlink" xml:space="preserve" xmlns:serif="http://www.serif.com/" style="fill-rule:evenodd;clip-rule:evenodd;stroke-linejoin:round;stroke-miterlimit:2;">
    <path d="M341.45,0L858.54,0C908.724,0 950.177,41.453 950.177,91.637L950.177,1108.34C950.177,1158.52 908.724,1199.97 858.54,1199.97L341.45,1199.97C291.266,1199.97 249.813,1158.52 249.813,1108.34L249.813,91.637C249.813,41.453 291.266,-0 341.45,-0ZM537.81,1117.1C524.72,1117.1 515.994,1108.37 515.994,1095.28C515.994,1082.19 524.721,1073.47 537.81,1073.47L664.36,1073.47C675.27,1073.47 686.176,1082.19 686.176,1095.28C686.176,1108.37 675.266,1117.1 664.36,1117.1L537.81,1117.1ZM310.9,148.37L310.9,990.55L891.26,990.55L891.26,148.37L310.9,148.37Z" style="fill:rgb(15,39,151);"/>
</svg>
