<?xml version="1.0" encoding="UTF-8" standalone="no"?>
<!DOCTYPE svg PUBLIC "-//W3C//DTD SVG 1.1//EN" "http://www.w3.org/Graphics/SVG/1.1/DTD/svg11.dtd">
<svg width="100%" height="100%" viewBox="0 0 1200 1200" version="1.1" xmlns="http://www.w3.org/2000/svg" xmlns:xlink="http://www.w3.org/1999/xlink" xml:space="preserve" xmlns:serif="http://www.serif.com/" style="fill-rule:evenodd;clip-rule:evenodd;stroke-linejoin:round;stroke-miterlimit:2;">
    <g>
        <path d="M600,37.5C289.85,37.5 37.5,289.85 37.5,600C37.5,910.15 289.85,1162.5 600,1162.5C712.45,1162.5 786.95,1008.3 819.2,819.2C1008.3,786.95 1162.5,712.45 1162.5,600C1162.5,289.85 910.15,37.5 600,37.5ZM600,112.5C648.301,112.5 710.05,206.898 741.7,370.1C695.001,365.151 647.302,362.498 600,362.498C552.698,362.498 505,365.147 458.3,370.1C489.948,206.9 551.698,112.5 600,112.5ZM464.4,132.102C425.599,194.704 397.502,282.902 380.798,380.802C282.849,397.501 194.648,425.552 132.098,464.404C178.496,304.554 304.548,178.504 464.398,132.104L464.4,132.102ZM112.5,600.002C112.5,551.701 206.898,489.952 370.1,458.302C365.151,505.001 362.498,552.7 362.498,600.002C362.498,647.304 365.147,695.002 370.1,741.702C206.9,710.054 112.5,648.304 112.5,600.002ZM132.102,735.602C194.704,774.403 282.902,802.5 380.802,819.204C397.501,917.153 425.552,1005.35 464.404,1067.9C304.554,1021.51 178.504,895.454 132.104,735.604L132.102,735.602ZM600.002,1087.5C551.701,1087.5 489.952,993.104 458.302,829.902C505.001,834.851 552.7,837.504 600.002,837.504C647.304,837.504 695.002,834.855 741.702,829.902C710.054,993.102 648.304,1087.5 600.002,1087.5ZM753.652,753.652C706.601,759.254 655.3,762.504 600.002,762.504C544.701,762.504 493.402,759.254 446.352,753.652C440.75,706.601 437.5,655.3 437.5,600.002C437.5,544.701 440.75,493.402 446.352,446.352C493.403,440.75 544.704,437.5 600.002,437.5C655.303,437.5 706.602,440.75 753.652,446.352C759.254,493.403 762.504,544.704 762.504,600.002C762.504,655.303 759.254,706.602 753.652,753.652ZM1087.5,600.002C1087.5,648.303 993.104,710.052 829.902,741.702C834.851,695.003 837.504,647.304 837.504,600.002C837.504,552.7 834.855,505.002 829.902,458.302C993.102,489.95 1087.5,551.7 1087.5,600.002ZM819.202,380.802C802.503,282.853 774.452,194.652 735.6,132.102C895.45,178.5 1021.5,304.552 1067.9,464.402C1005.3,425.601 917.1,397.504 819.2,380.8L819.202,380.802Z" style="fill:rgb(15,39,151);fill-rule:nonzero;"/>
        <path d="M1065.1,1012.1L1126.45,1009.75C1144.65,1009.05 1159.75,995.35 1162.15,977.299C1164.6,959.248 1153.7,942.049 1136.3,936.549L912.799,865.799C909.248,864.651 905.6,864.198 901.998,864.151C901.248,864.151 900.6,864.35 899.85,864.35C896.248,864.499 892.748,865.202 889.35,866.401C888.201,866.799 887.1,867.202 885.998,867.702C881.998,869.503 878.197,871.803 874.998,875.003C871.799,878.202 869.498,882.053 867.646,886.054C867.146,887.155 866.748,888.202 866.346,889.304C865.146,892.753 864.447,896.253 864.295,899.906C864.295,900.605 864.045,901.304 864.096,902.007C864.096,905.609 864.646,909.257 865.744,912.808L936.494,1136.31C941.494,1152.06 956.096,1162.51 972.193,1162.51C973.841,1162.51 975.545,1162.41 977.244,1162.16C995.295,1159.76 1008.99,1144.66 1009.69,1126.46L1012.04,1065.11L1098.44,1151.5C1105.74,1158.8 1115.34,1162.5 1124.94,1162.5C1134.54,1162.5 1144.14,1158.85 1151.44,1151.5C1166.09,1136.86 1166.09,1113.11 1151.44,1098.45L1065.04,1012.05L1065.1,1012.1Z" style="fill:rgb(15,39,151);fill-rule:nonzero;"/>
    </g>
</svg>
